<svg width="30" height="30" viewBox="0 0 30 30" fill="none" xmlns="http://www.w3.org/2000/svg">
<path fill-rule="evenodd" clip-rule="evenodd" d="M20.6337 9.35292C19.0037 7.72292 16.6937 6.78292 14.1537 7.04292C10.4837 7.41292 7.46366 10.3929 7.05366 14.0629C6.50366 18.9129 10.2537 23.0029 14.9837 23.0029C18.1737 23.0029 20.9137 21.1329 22.1937 18.4429C22.5137 17.7729 22.0337 17.0029 21.2937 17.0029C20.9237 17.0029 20.5737 17.2029 20.4137 17.5329C19.2837 19.9629 16.5737 21.5029 13.6137 20.8429C11.3937 20.3529 9.60366 18.5429 9.13366 16.3229C8.29366 12.4429 11.2437 9.00292 14.9837 9.00292C16.6437 9.00292 18.1237 9.69292 19.2037 10.7829L17.6937 12.2929C17.0637 12.9229 17.5037 14.0029 18.3937 14.0029H21.9837C22.5337 14.0029 22.9837 13.5529 22.9837 13.0029V9.41292C22.9837 8.52292 21.9037 8.07292 21.2737 8.70292L20.6337 9.35292Z" fill="#C3CAD9"/>
</svg>
