<svg width="30" height="30" viewBox="0 0 30 30" fill="none" xmlns="http://www.w3.org/2000/svg">
<path fill-rule="evenodd" clip-rule="evenodd" d="M11 5C9.9 5 9 5.9 9 7V10.17C9 10.7 9.21 11.21 9.59 11.59L13 15L9.58 18.42C9.21 18.8 9 19.31 9 19.84V23C9 24.1 9.9 25 11 25H19C20.1 25 21 24.1 21 23V19.84C21 19.31 20.79 18.8 20.42 18.43L17 15L20.41 11.6C20.79 11.22 21 10.71 21 10.18V7C21 5.9 20.1 5 19 5H11ZM19 19.5V22C19 22.55 18.55 23 18 23H12C11.45 23 11 22.55 11 22V19.5L15 15.5L19 19.5ZM15 14.5L11 10.5V8C11 7.45 11.45 7 12 7H18C18.55 7 19 7.45 19 8V10.5L15 14.5Z" fill="#C3CAD9"/>
</svg>
