<svg width="30" height="30" viewBox="0 0 30 30" fill="none" xmlns="http://www.w3.org/2000/svg">
<path fill-rule="evenodd" clip-rule="evenodd" d="M20.59 6.59C20.21 6.21 19.7 6 19.17 6H8C6.89 6 6 6.9 6 8V22C6 23.1 6.9 24 8 24H22C23.1 24 24 23.1 24 22V10.83C24 10.3 23.79 9.79 23.41 9.42L20.59 6.59ZM15 22C13.34 22 12 20.66 12 19C12 17.34 13.34 16 15 16C16.66 16 18 17.34 18 19C18 20.66 16.66 22 15 22ZM16 12H10C8.9 12 8 11.1 8 10C8 8.9 8.9 8 10 8H16C17.1 8 18 8.9 18 10C18 11.1 17.1 12 16 12Z" fill="#C3CAD9"/>
</svg>
